<?xml version="1.0" encoding="utf-8"?>
<svg xmlns="http://www.w3.org/2000/svg" fill="none" height="127" viewBox="0 0 128 127" width="128">
<path clip-rule="evenodd" d="M35.0981 25.9577L55.2978 23.9244C56.124 26.0114 57.3237 27.0955 59.4831 27.7092V41.4644L59.1567 41.5558C55.4168 42.6032 53.8183 47.0772 56.0345 50.2623L56.2279 50.5401L46.7143 62.0954L46.403 61.9555C42.4422 60.1756 37.905 63.451 38.4887 67.9448L38.532 68.2771L27.7253 73.0129L19.1976 59.8701L19.4185 59.616C21.3326 57.4162 21.2959 54.1915 19.3383 52.0318L19.1123 51.7824L35.0981 25.9577ZM66.168 48.69L66.0504 49.0058C64.9116 52.0658 61.4351 53.5363 58.4306 52.2398L58.122 52.1067L48.61 63.6584C49.7145 65.2425 49.9992 66.4719 49.6957 68.3798L62.7285 74.3825L62.9481 74.1267C64.033 72.8639 65.5991 72.1357 67.267 72.1357C68.6275 72.1357 69.5929 72.546 70.6884 73.2636L82.9391 62.7549L82.7978 62.4484C81.9041 60.5086 82.1612 58.2743 83.4573 56.5796L83.6615 56.3124L78.7371 49.6639L66.168 48.69ZM66.2926 45.9025C65.8745 43.8188 64.3097 42.1344 62.2672 41.5555L61.9421 41.4633V27.7087C64.0168 27.1228 65.1567 26.1301 66.0408 24.1658L91.887 27.9644C92.0612 29.2849 92.2727 29.8362 92.9966 30.953L78.8704 47.2094L66.359 46.2334L66.2926 45.9025ZM95.1622 32.7008C96.6178 33.4025 97.9685 33.3337 99.4701 32.9406L109.507 49.0998C108.249 50.4832 107.818 51.5609 107.794 53.4317L93.0179 57.421C92.2575 56.1618 91.4132 55.2881 89.9881 54.7431C88.4483 54.1541 87.1244 54.294 85.6379 54.8547L80.9682 48.5469L94.8544 32.5523L95.1622 32.7008ZM108.605 56.1053C109.35 57.336 110.542 58.2578 111.931 58.6463L112.257 58.7377V72.6036L100.437 78.3821L100.211 78.1327C99.1273 76.9347 97.5981 76.2461 95.9807 76.2461C92.8394 76.2461 90.288 78.8025 90.288 81.943C90.288 85.0487 92.8073 87.5866 95.91 87.6259L96.2476 87.6301L99.2672 98.7784L93.6088 101.531L93.3836 101.28C91.7479 99.4529 89.1893 98.8857 86.9302 99.8396L86.6193 99.9711L71.7083 81.3941L71.9045 81.1186C73.0914 79.4535 73.2885 77.2919 72.433 75.4355L72.2918 75.129L84.5424 64.6203L84.8234 64.8043C88.5952 67.275 93.5926 64.6168 93.651 60.1304L93.6553 59.7923L108.431 55.8182L108.605 56.1053Z" fill="#C8C9EB" fill-rule="evenodd"/>
<path clip-rule="evenodd" d="M113.485 55.9695C111.95 55.9695 110.702 54.7125 110.702 53.1729C110.702 51.6477 111.95 50.3907 113.485 50.3907C115.023 50.3907 116.272 51.6477 116.272 53.1729C116.272 54.7125 115.023 55.9695 113.485 55.9695ZM98.7644 81.9429C98.7644 83.4682 97.5159 84.7254 95.9806 84.7254C94.4426 84.7254 93.1941 83.4684 93.1941 81.9429C93.1941 80.4034 94.4426 79.1464 95.9806 79.1464C97.5159 79.1464 98.7644 80.4034 98.7644 81.9429ZM111.81 72.3247V59.0768C110.296 58.6532 109.018 57.6504 108.223 56.3368L94.0976 60.1362C94.0344 64.9612 88.654 67.8484 84.5782 65.1782L72.8385 75.2485C73.7638 77.2568 73.5439 79.5878 72.2678 81.3781L86.7557 99.4282C89.2133 98.3903 91.9674 99.0293 93.7157 100.982L98.7381 98.5385L95.9036 88.0728C92.5533 88.0303 89.8401 85.2903 89.8401 81.9432C89.8401 78.5536 92.5942 75.7995 95.9798 75.7995C97.7876 75.7995 99.4175 76.5904 100.542 77.8334L111.81 72.3247ZM89.1475 107.86C87.6108 107.86 86.361 106.617 86.361 105.078C86.361 103.538 87.6108 102.295 89.1475 102.295C90.6841 102.295 91.9326 103.538 91.9326 105.078C91.9329 106.617 90.6841 107.86 89.1475 107.86ZM67.2672 71.6892C65.407 71.6892 63.7379 72.5223 62.6091 73.8359L50.1904 68.1158C50.4416 66.5361 50.0493 64.9413 49.1705 63.6809L58.2534 52.6503C61.5067 54.0541 65.2466 52.4468 66.4691 49.1616L78.4996 50.0938L83.1024 56.3081C81.7078 58.1316 81.4273 60.5417 82.3919 62.6356L70.6522 72.7058C69.6823 72.0705 68.5186 71.6892 67.2672 71.6892ZM67.2672 80.6153C65.7318 80.6153 64.482 79.3583 64.482 77.8328C64.482 76.2933 65.7318 75.0363 67.2672 75.0363C68.8051 75.0363 70.0536 76.2933 70.0536 77.8328C70.0539 79.3583 68.8054 80.6153 67.2672 80.6153ZM46.5859 61.5485L55.6674 50.5179C53.2804 47.0869 54.9899 42.2589 59.0358 41.1257V28.0472C58.1299 27.789 57.2955 27.3261 56.5969 26.6943C55.8983 26.0625 55.3541 25.2786 55.0064 24.4032L35.362 26.3805L19.6691 51.7324C21.78 54.0613 21.8166 57.5409 19.7552 59.9102L27.8931 72.4519L38.0451 68.0029C37.4085 63.0987 42.3664 59.652 46.5859 61.5485ZM44.1272 69.952C42.5905 69.952 41.3407 68.7091 41.3407 67.1695C41.3407 65.63 42.5908 64.373 44.1272 64.373C45.6625 64.373 46.9123 65.63 46.9123 67.1695C46.9123 68.7091 45.6622 69.952 44.1272 69.952ZM15.1383 58.6532C13.6017 58.6532 12.3516 57.4103 12.3516 55.8707C12.3516 54.3311 13.6014 53.0882 15.1383 53.0882C16.6737 53.0882 17.9235 54.3311 17.9235 55.8707C17.9235 57.4103 16.6737 58.6532 15.1383 58.6532ZM60.7124 19.3612C62.249 19.3612 63.4988 20.6041 63.4988 22.1434C63.4988 23.683 62.2488 24.9259 60.7124 24.9259C59.1771 24.9259 57.9272 23.683 57.9272 22.1434C57.9272 20.6041 59.1773 19.3612 60.7124 19.3612ZM63.4991 47.0293C63.4991 45.4897 62.249 44.2327 60.7126 44.2327C59.1773 44.2327 57.9275 45.4897 57.9275 47.0293C57.9275 48.5545 59.1776 49.8118 60.7126 49.8118C62.249 49.8118 63.4991 48.5548 63.4991 47.0293ZM66.3097 24.6576C65.5725 26.296 64.1402 27.553 62.389 28.0472V41.1257C64.5811 41.7472 66.2773 43.555 66.7307 45.8148L78.6807 46.747L92.4385 30.9144C91.9443 30.1517 91.611 29.2901 91.488 28.358L66.3097 24.6576ZM90.7492 60.0512C90.7492 61.5908 89.4991 62.8478 87.9627 62.8478C86.4261 62.8478 85.1776 61.5908 85.1776 60.0512C85.1776 58.526 86.4261 57.2687 87.9627 57.2687C89.4991 57.269 90.7492 58.526 90.7492 60.0512ZM94.9679 33.1033C96.3091 33.75 97.8195 33.8347 99.2642 33.4566L108.949 49.049C107.973 50.1225 107.371 51.5348 107.351 53.0882L93.2263 56.9017C91.705 54.3829 88.5983 53.2595 85.7959 54.3171L81.5405 48.5689L94.9679 33.1033ZM97.5738 24.7705C99.1091 24.7705 100.359 26.0134 100.359 27.553C100.359 29.0926 99.1088 30.3355 97.5738 30.3355C96.0358 30.3355 94.7873 29.0926 94.7873 27.553C94.7873 26.0134 96.0356 24.7705 97.5738 24.7705ZM113.485 47.0436C112.901 47.0436 112.333 47.1283 111.796 47.2837L102.11 31.6772C105.671 27.7824 102.91 21.4093 97.5735 21.4093C95.0835 21.4093 92.9381 22.9064 91.9748 25.039L66.7965 21.3387C66.4011 18.3305 63.825 16 60.7121 16C57.6967 16 55.1827 18.1892 54.6699 21.0704L34.2033 23.1183C33.9476 23.1473 33.7017 23.2334 33.4839 23.3703C33.2661 23.5072 33.0819 23.6914 32.9449 23.9092L16.8189 49.9671C12.9478 48.8408 9 51.7709 9 55.8707C9 60.044 13.0809 62.9702 16.9475 61.7321L25.8566 75.4601C26.3086 76.1599 27.2015 76.408 27.9356 76.0816L39.3914 71.0677C41.8065 74.0034 46.2967 74.0526 48.7849 71.1524L61.2037 76.8866C60.4301 81.5308 65.202 85.3641 69.6582 83.4822L84.1461 101.532C81.268 105.571 84.1697 111.221 89.1472 111.221C92.9585 111.221 95.8555 107.774 95.1894 103.99L101.453 100.939C101.804 100.767 102.083 100.478 102.244 100.123C102.406 99.7673 102.438 99.3668 102.336 98.99L99.1399 87.1969C100.208 86.5552 101.056 85.6034 101.57 84.468C102.085 83.3327 102.241 82.0677 102.018 80.8413L114.224 74.8671C114.504 74.7301 114.741 74.5172 114.907 74.2526C115.072 73.988 115.161 73.6822 115.162 73.37V59.077C117.735 58.3568 119.625 55.9838 119.625 53.1735C119.625 49.7977 116.872 47.0436 113.485 47.0436Z" fill="#4C51BF" fill-rule="evenodd"/>
</svg>