<?xml version="1.0" encoding="utf-8"?>
<svg xmlns="http://www.w3.org/2000/svg" fill="none" height="127" viewBox="0 0 128 127" width="128">
<path d="M53.2173 40.757H47.8217V31.8779C47.8217 31.4967 47.6703 31.1311 47.4007 30.8615C47.1312 30.592 46.7656 30.4406 46.3844 30.4406C46.0032 30.4406 45.6376 30.592 45.368 30.8615C45.0985 31.1311 44.9471 31.4967 44.9471 31.8779V40.757H37.6349C37.5079 40.7568 37.3862 40.7063 37.2964 40.6165C37.2066 40.5267 37.1561 40.4049 37.1559 40.2779V24.7868C37.1559 24.4056 37.0045 24.04 36.7349 23.7704C36.4654 23.5009 36.0998 23.3495 35.7186 23.3495C35.3374 23.3495 34.9718 23.5009 34.7023 23.7704C34.4327 24.04 34.2813 24.4056 34.2813 24.7868V33.6984H26.5779C26.1967 33.6984 25.8312 33.8498 25.5616 34.1194C25.2921 34.3889 25.1406 34.7545 25.1406 35.1357C25.1406 35.5169 25.2921 35.8825 25.5616 36.1521C25.8312 36.4216 26.1967 36.573 26.5779 36.573H34.2811V40.2776C34.2811 42.1269 35.7858 43.6314 37.6349 43.6314H53.2173C53.3443 43.6316 53.466 43.6821 53.5558 43.7719C53.6457 43.8617 53.6962 43.9834 53.6963 44.1104V49.9665C53.6963 50.3477 53.8477 50.7132 54.1173 50.9828C54.3868 51.2523 54.7524 51.4038 55.1336 51.4038C55.5148 51.4038 55.8804 51.2523 56.15 50.9828C56.4195 50.7132 56.5709 50.3477 56.5709 49.9665V44.1104C56.5711 42.2616 55.0667 40.757 53.2173 40.757ZM64.8597 18.9415C64.4785 18.9415 64.113 19.093 63.8434 19.3625C63.5739 19.6321 63.4224 19.9976 63.4224 20.3788V49.9668C63.4224 50.348 63.5739 50.7136 63.8434 50.9832C64.113 51.2527 64.4785 51.4041 64.8597 51.4041C65.2409 51.4041 65.6065 51.2527 65.8761 50.9832C66.1456 50.7136 66.2971 50.348 66.2971 49.9668V20.3788C66.2971 19.9976 66.1456 19.6321 65.8761 19.3625C65.6065 19.093 65.2409 18.9415 64.8597 18.9415Z" fill="#EBEBEC"/>
<path d="M33.2529 62.6702V68.6408C33.2529 69.7705 33.5026 70.8863 33.9841 71.9082C34.4656 72.9302 35.1671 73.833 36.0383 74.5523L58.1675 92.823V109.207C58.1675 110.583 59.5756 111.511 60.8405 110.967L70.3912 106.865C70.7355 106.717 71.0289 106.471 71.2351 106.158C71.4413 105.845 71.5513 105.479 71.5513 105.104V92.8232L93.6806 74.5525C94.5517 73.8332 95.2532 72.9303 95.7347 71.9084C96.2162 70.8864 96.4659 69.7707 96.4659 68.641V62.6704L64.8594 59.6034L33.2529 62.6702Z" fill="#7074CC"/>
<path d="M97.7279 62.6698H31.99C30.0324 62.6698 28.4453 61.0827 28.4453 59.125C28.4453 57.1674 30.0324 55.5803 31.99 55.5803H97.7277C99.6853 55.5803 101.272 57.1674 101.272 59.125C101.272 61.0827 99.6855 62.6698 97.7279 62.6698Z" fill="#ADAFE2"/>
<path d="M88.8002 62.67V68.6407C88.8002 69.7704 88.5505 70.8861 88.069 71.9081C87.5875 72.93 86.886 73.8329 86.0148 74.5521L63.8857 92.823V109.66L70.3918 106.865C70.7361 106.717 71.0295 106.471 71.2357 106.158C71.4419 105.845 71.5518 105.479 71.5519 105.104V92.823L93.6812 74.5523C94.5523 73.8331 95.2537 72.9302 95.7353 71.9082C96.2168 70.8863 96.4665 69.7706 96.4665 68.6409V62.6702H88.8002V62.67Z" fill="#454AAE"/>
<path d="M64.8589 15.875C64.4328 15.8717 64.0103 15.9528 63.6158 16.1136C63.2212 16.2744 62.8624 16.5117 62.5599 16.8119C62.2575 17.112 62.0174 17.469 61.8536 17.8623C61.6898 18.2557 61.6055 18.6775 61.6055 19.1036C61.6055 19.5297 61.6898 19.9516 61.8536 20.3449C62.0174 20.7382 62.2574 21.0953 62.5598 21.3954C62.8622 21.6956 63.221 21.9329 63.6156 22.0937C64.0102 22.2545 64.4326 22.3357 64.8587 22.3324C65.7108 22.326 66.5258 21.983 67.126 21.3782C67.7263 20.7734 68.0631 19.9559 68.0631 19.1038C68.0632 18.2517 67.7264 17.4341 67.1261 16.8293C66.5259 16.2245 65.711 15.8815 64.8589 15.875Z" fill="#B9C2CC"/>
<path d="M46.3843 25.4834C45.9582 25.4801 45.5357 25.5612 45.1412 25.722C44.7466 25.8828 44.3877 26.1201 44.0853 26.4203C43.7829 26.7204 43.5428 27.0774 43.379 27.4707C43.2152 27.8641 43.1309 28.2859 43.1309 28.712C43.1308 29.1381 43.2152 29.56 43.379 29.9533C43.5427 30.3466 43.7828 30.7037 44.0852 31.0038C44.3876 31.304 44.7464 31.5413 45.141 31.7021C45.5355 31.8629 45.958 31.9441 46.3841 31.9408C47.2362 31.9344 48.0512 31.5914 48.6514 30.9866C49.2516 30.3818 49.5885 29.5643 49.5885 28.7122C49.5885 27.8601 49.2517 27.0425 48.6515 26.4377C48.0513 25.8329 47.2364 25.4899 46.3843 25.4834Z" fill="#F56565"/>
<path d="M35.6558 18.3288C35.2297 18.3256 34.8072 18.4067 34.4126 18.5675C34.0181 18.7283 33.6592 18.9656 33.3568 19.2657C33.0544 19.5659 32.8143 19.9229 32.6505 20.3162C32.4867 20.7095 32.4024 21.1314 32.4023 21.5575C32.4023 21.9836 32.4866 22.4054 32.6504 22.7988C32.8142 23.1921 33.0542 23.5491 33.3567 23.8493C33.6591 24.1494 34.0179 24.3867 34.4125 24.5476C34.807 24.7084 35.2295 24.7895 35.6556 24.7863C36.5077 24.7799 37.3226 24.4369 37.9229 23.8321C38.5231 23.2273 38.86 22.4098 38.86 21.5577C38.86 20.7056 38.5232 19.888 37.923 19.2832C37.3228 18.6784 36.5078 18.3353 35.6558 18.3288Z" fill="#B9C2CC"/>
<path d="M24.9194 31.907C24.4934 31.9037 24.0709 31.9848 23.6763 32.1456C23.2817 32.3064 22.9229 32.5437 22.6205 32.8438C22.318 33.144 22.078 33.501 21.9142 33.8943C21.7504 34.2877 21.666 34.7095 21.666 35.1356C21.666 35.5617 21.7503 35.9835 21.9141 36.3769C22.0779 36.7702 22.3179 37.1273 22.6203 37.4274C22.9227 37.7275 23.2816 37.9649 23.6761 38.1257C24.0707 38.2865 24.4932 38.3677 24.9193 38.3644C25.7713 38.358 26.5863 38.015 27.1866 37.4102C27.7868 36.8054 28.1237 35.9879 28.1237 35.1358C28.1237 34.2837 27.7869 33.4661 27.1867 32.8613C26.5865 32.2565 25.7715 31.9134 24.9194 31.907Z" fill="#F56565"/>
<path d="M103.141 33.6984H95.4383V24.7866C95.4383 24.4054 95.2868 24.0398 95.0173 23.7702C94.7477 23.5007 94.3822 23.3492 94.001 23.3492C93.6198 23.3492 93.2542 23.5007 92.9846 23.7702C92.7151 24.0398 92.5637 24.4054 92.5637 24.7866V40.2777C92.5636 40.4047 92.5131 40.5265 92.4232 40.6163C92.3334 40.7062 92.2116 40.7567 92.0846 40.7568H84.7725V31.8777C84.7725 31.4965 84.6211 31.1309 84.3515 30.8613C84.082 30.5918 83.7164 30.4404 83.3352 30.4404C82.954 30.4404 82.5884 30.5918 82.3189 30.8613C82.0493 31.1309 81.8979 31.4965 81.8979 31.8777V40.7568H76.5023C74.6529 40.7568 73.1484 42.2614 73.1484 44.1106V49.9666C73.1484 50.3478 73.2999 50.7134 73.5694 50.983C73.839 51.2525 74.2046 51.4039 74.5857 51.4039C74.9669 51.4039 75.3325 51.2525 75.6021 50.983C75.8716 50.7134 76.0231 50.3478 76.0231 49.9666V44.1106C76.0232 43.9836 76.0737 43.8618 76.1635 43.772C76.2533 43.6822 76.3751 43.6317 76.5021 43.6316H92.0844C93.9338 43.6316 95.4383 42.1269 95.4383 40.2777V36.5732H103.141C103.523 36.5732 103.888 36.4218 104.158 36.1522C104.427 35.8827 104.579 35.5171 104.579 35.1359C104.579 34.9471 104.542 34.7602 104.469 34.5858C104.397 34.4114 104.291 34.2529 104.158 34.1194C104.024 33.986 103.866 33.8801 103.692 33.8078C103.517 33.7356 103.33 33.6984 103.141 33.6984Z" fill="#EBEBEC"/>
<path d="M83.3351 25.4834C83.7612 25.4801 84.1836 25.5612 84.5782 25.722C84.9728 25.8828 85.3316 26.1201 85.6341 26.4203C85.9365 26.7204 86.1765 27.0774 86.3404 27.4707C86.5042 27.8641 86.5885 28.2859 86.5885 28.712C86.5885 29.1381 86.5042 29.56 86.3404 29.9533C86.1766 30.3466 85.9366 30.7037 85.6342 31.0038C85.3318 31.304 84.973 31.5413 84.5784 31.7021C84.1838 31.8629 83.7613 31.9441 83.3353 31.9408C82.4832 31.9344 81.6682 31.5914 81.068 30.9866C80.4677 30.3818 80.1309 29.5643 80.1309 28.7122C80.1308 27.8601 80.4676 27.0425 81.0678 26.4377C81.6681 25.8329 82.483 25.4899 83.3351 25.4834Z" fill="#F56565"/>
<path d="M94.0626 18.3288C94.4887 18.3256 94.9112 18.4067 95.3058 18.5675C95.7003 18.7283 96.0592 18.9656 96.3616 19.2657C96.664 19.5659 96.9041 19.9229 97.0679 20.3162C97.2317 20.7095 97.316 21.1314 97.3161 21.5575C97.3161 21.9836 97.2318 22.4054 97.068 22.7988C96.9042 23.1921 96.6642 23.5491 96.3617 23.8493C96.0593 24.1494 95.7005 24.3867 95.3059 24.5476C94.9114 24.7084 94.4889 24.7895 94.0628 24.7863C93.2107 24.7799 92.3958 24.4369 91.7955 23.8321C91.1953 23.2273 90.8584 22.4098 90.8584 21.5577C90.8584 20.7056 91.1952 19.888 91.7954 19.2832C92.3956 18.6784 93.2106 18.3353 94.0626 18.3288Z" fill="#B9C2CC"/>
<path d="M104.8 31.907C105.226 31.9037 105.648 31.9848 106.043 32.1456C106.438 32.3064 106.796 32.5437 107.099 32.8438C107.401 33.144 107.641 33.501 107.805 33.8943C107.969 34.2877 108.053 34.7095 108.053 35.1356C108.053 35.5617 107.969 35.9835 107.805 36.3769C107.641 36.7702 107.401 37.1273 107.099 37.4274C106.797 37.7275 106.438 37.9649 106.043 38.1257C105.649 38.2865 105.226 38.3677 104.8 38.3644C103.948 38.358 103.133 38.015 102.533 37.4102C101.933 36.8054 101.596 35.9879 101.596 35.1358C101.596 34.2837 101.932 33.4661 102.533 32.8613C103.133 32.2565 103.948 31.9134 104.8 31.907Z" fill="#F56565"/>
<path d="M71.5517 91.3854H64.285C63.9038 91.3854 63.5382 91.5368 63.2686 91.8064C62.9991 92.0759 62.8477 92.4415 62.8477 92.8227C62.8477 93.2039 62.9991 93.5695 63.2686 93.839C63.5382 94.1086 63.9038 94.26 64.285 94.26H71.5517C71.9329 94.26 72.2985 94.1086 72.568 93.839C72.8376 93.5695 72.989 93.2039 72.989 92.8227C72.989 92.4415 72.8376 92.0759 72.568 91.8064C72.2985 91.5368 71.9329 91.3854 71.5517 91.3854Z" fill="#ADAFE2"/>
</svg>