<?xml version="1.0" encoding="utf-8"?>
<svg xmlns="http://www.w3.org/2000/svg" fill="none" height="127" viewBox="0 0 128 127" width="128">
<g id="Frame">
<g id="Group">
<path d="M95.75 111.125H32.25C23.5187 111.125 16.375 103.981 16.375 95.25V31.75C16.375 23.0187 23.5187 15.875 32.25 15.875H95.75C104.481 15.875 111.625 23.0187 111.625 31.75V95.25C111.625 103.981 104.481 111.125 95.75 111.125Z" fill="#878AD4" id="Vector"/>
<path d="M111.625 31.75V95.25C111.625 103.981 104.481 111.125 95.75 111.125H31.4563C23.1219 110.728 16.375 103.584 16.375 95.25V31.75C16.375 23.0187 23.5187 15.875 32.25 15.875H95.75C104.481 15.875 111.625 23.0187 111.625 31.75Z" fill="#C8C9EB" id="Vector_2"/>
<path d="M82.6531 111.125H32.25C23.5187 111.125 16.375 103.981 16.375 95.2502V82.1533L25.5031 73.0252C30.6625 67.8658 39.3937 67.8658 44.5531 73.0252L82.6531 111.125Z" fill="#4C51BF" id="Vector_3"/>
<path d="M111.625 72.628V95.2498C111.625 103.981 104.481 111.125 95.7498 111.125H31.4561L81.0654 61.1186C86.2248 55.9592 94.9561 55.9592 100.115 61.1186L111.625 72.628ZM74.3186 40.878H67.9686V57.1498C67.9686 59.5311 65.9842 61.1186 63.9998 61.1186C62.0154 61.1186 60.0311 59.5311 60.0311 57.1498V40.878H53.6811C51.2998 40.878 49.7123 38.0998 51.2998 36.1155L61.6186 23.8123C62.8092 22.2248 65.1904 22.2248 65.9842 23.8123L76.3029 36.5123C77.8904 38.0998 76.6998 40.878 74.3186 40.878Z" fill="#878AD4" id="Vector_4"/>
</g>
</g>
</svg>