<?xml version="1.0" encoding="utf-8"?>
<svg xmlns="http://www.w3.org/2000/svg" fill="none" height="127" viewBox="0 0 128 127" width="128">
<path d="M93.7656 111.125H34.2344C29.4978 111.125 24.9552 109.243 21.6059 105.894C18.2566 102.545 16.375 98.0022 16.375 93.2656V33.7344C16.375 28.9978 18.2566 24.4552 21.6059 21.1059C24.9552 17.7566 29.4978 15.875 34.2344 15.875L93.7656 15.875C98.5022 15.875 103.045 17.7566 106.394 21.1059C109.743 24.4552 111.625 28.9978 111.625 33.7344V93.2656C111.625 98.0022 109.743 102.545 106.394 105.894C103.045 109.243 98.5022 111.125 93.7656 111.125Z" fill="#C8C9EB"/>
<path d="M63.9998 75.4062C63.6982 75.4063 63.3997 75.3451 63.1224 75.2264C62.8451 75.1077 62.5948 74.9339 62.3866 74.7157L46.7596 58.3446C46.4577 58.0285 46.2553 57.6308 46.1774 57.2007C46.0994 56.7707 46.1495 56.3272 46.3213 55.9253C46.4931 55.5234 46.779 55.1808 47.1437 54.9399C47.5084 54.699 47.9358 54.5705 48.3729 54.5703H56.5584V37.4551C56.5584 35.4042 58.2283 33.7344 60.2791 33.7344H67.7206C69.7714 33.7344 71.4413 35.4042 71.4413 37.4551V54.5703H79.6268C80.0639 54.5705 80.4913 54.699 80.856 54.9399C81.2207 55.1808 81.5066 55.5234 81.6784 55.9253C81.8502 56.3272 81.9003 56.7707 81.8223 57.2007C81.7444 57.6308 81.542 58.0285 81.2401 58.3446L65.6131 74.7157C65.4049 74.9339 65.1546 75.1077 64.8773 75.2264C64.6 75.3451 64.3015 75.4063 63.9998 75.4062Z" fill="#4C51BF"/>
<path d="M94.5098 93.2656H33.4902C30.6179 93.2656 28.2812 90.929 28.2812 88.0566V86.5684C28.2812 83.696 30.6179 81.3594 33.4902 81.3594H94.5098C97.3821 81.3594 99.7188 83.696 99.7188 86.5684V88.0566C99.7188 90.929 97.3821 93.2656 94.5098 93.2656Z" fill="#878AD4"/>
</svg>